<svg id="Layer_1" data-name="Layer 1" xmlns="http://www.w3.org/2000/svg" viewBox="0 0 50 50"><defs><style>.cls-1{fill:#fff;}.cls-2{fill:#f69683;}.cls-3{opacity:0.25;}.cls-4{fill:#2d3c8d;}</style></defs><title>jackcons</title><polygon class="cls-1" points="39.47 7.65 39.47 4.33 36.04 4.33 36.04 1 5.68 1 5.69 42.36 9.12 42.35 9.12 45.68 12.7 45.68 12.7 49.01 42.8 49.01 42.8 7.65 39.47 7.65"/><rect class="cls-2" x="12.59" y="35.18" width="30.31" height="13.83"/><g class="cls-3"><polygon class="cls-4" points="36.11 3.7 36.11 1 5.68 1 5.68 41.77 8.95 41.77 8.95 45.68 12.59 45.68 12.59 7.65 39.58 7.65 39.58 3.7 36.11 3.7"/></g><path class="cls-4" d="M44,50H13a1,1,0,0,1-1-1V8a1,1,0,0,1,1-1H44a1,1,0,0,1,1,1V49A1,1,0,0,1,44,50ZM14,48H43V9L14,8.91Z"/><path class="cls-4" d="M12.59,46.67H9a1,1,0,0,1-1-1V4.33a1,1,0,0,1,1-1H39.93a1,1,0,0,1,1,1V7.65a1,1,0,0,1-2,0V5.32H10V44.69h2.59a1,1,0,0,1,0,2Z"/><path class="cls-4" d="M8.18,43.34H5a1,1,0,0,1-1-1V1A1,1,0,0,1,5,0H36a1,1,0,0,1,1,1V3.87a1,1,0,1,1-2,0V2H6V41.36H8.18a1,1,0,0,1,0,2Z"/><path class="cls-4" d="M38.06,14h-7a1,1,0,1,1,0-2h7a1,1,0,0,1,0,2Z"/><path class="cls-4" d="M38.06,17h-7a1,1,0,0,1,0-2h7a1,1,0,1,1,0,2Z"/><path class="cls-4" d="M25.72,23H18.65a1,1,0,0,1,0-2h7.07a1,1,0,1,1,0,2Z"/><path class="cls-4" d="M37.85,23H35.2a1,1,0,0,1,0-2h2.65a1,1,0,1,1,0,2Z"/><path class="cls-4" d="M37.85,28H35.2a1,1,0,0,1,0-2h2.65a1,1,0,1,1,0,2Z"/><path class="cls-4" d="M29.32,28H18.65a1,1,0,0,1,0-2H29.32a1,1,0,0,1,0,2Z"/><path class="cls-4" d="M27.33,33H18.65a1,1,0,0,1,0-2h8.68a1,1,0,1,1,0,2Z"/><path class="cls-4" d="M37.85,33H35.2a1,1,0,1,1,0-2h2.65a1,1,0,1,1,0,2Z"/><path class="cls-4" d="M20,46.2a1,1,0,0,1-1-1L19,37.66a1,1,0,0,1,1-1h0a1,1,0,0,1,1,1L21,45.2a1,1,0,0,1-1,1Z"/><path class="cls-4" d="M20.07,45a7.18,7.18,0,0,1-2.26-.41,1,1,0,0,1,.63-1.87c1.75.59,2.63.15,2.73,0h0a3.23,3.23,0,0,0-1.38-.5l-.26,0a6.47,6.47,0,0,1-1.06-.22c-1.45-.45-1.75-1.48-1.57-2.21.36-1.45,2.49-2.31,4.74-1.91a1,1,0,1,1-.34,2A3.46,3.46,0,0,0,19,40l0,0a5.94,5.94,0,0,0,.73.14l.29,0c2.14.34,2.77,1.35,2.95,1.93a1.89,1.89,0,0,1-.51,2A3.43,3.43,0,0,1,20.07,45Z"/><path class="cls-4" d="M35.85,46.2a1,1,0,0,1-1-1l-.09-7.57a1,1,0,0,1,1-1h0a1,1,0,0,1,1,1l.09,7.56a1,1,0,0,1-1,1Z"/><path class="cls-4" d="M35.88,45a7.28,7.28,0,0,1-2.27-.41,1,1,0,1,1,.64-1.87c1.74.59,2.63.15,2.72,0a2.79,2.79,0,0,0-1.38-.5l-.26,0a6.36,6.36,0,0,1-1-.22c-1.45-.45-1.75-1.48-1.57-2.21.36-1.45,2.49-2.31,4.74-1.91a1,1,0,0,1,.8,1.15,1,1,0,0,1-1.14.8,3.46,3.46,0,0,0-2.27.27l0,0a5.59,5.59,0,0,0,.73.14l.29,0c2.14.34,2.77,1.35,3,1.93a1.89,1.89,0,0,1-.51,2A3.43,3.43,0,0,1,35.88,45Z"/><path class="cls-4" d="M28.36,46.2a1,1,0,0,1-1-1l-.09-7.57a1,1,0,0,1,1-1h0a1,1,0,0,1,1,1l.09,7.56a1,1,0,0,1-1,1Z"/><path class="cls-4" d="M28.39,45a7.18,7.18,0,0,1-2.26-.41,1,1,0,0,1,.63-1.87c1.75.59,2.63.15,2.73,0h0a3.23,3.23,0,0,0-1.38-.5l-.26,0a6.47,6.47,0,0,1-1.06-.22c-1.44-.45-1.75-1.48-1.57-2.21.36-1.45,2.49-2.31,4.74-1.91A1,1,0,0,1,30.77,39a1,1,0,0,1-1.15.8,3.46,3.46,0,0,0-2.27.27l0,0a5.94,5.94,0,0,0,.73.14l.29,0c2.14.34,2.77,1.35,3,1.93a1.92,1.92,0,0,1-.52,2A3.43,3.43,0,0,1,28.39,45Z"/></svg>