<svg id="Layer_1" data-name="Layer 1" xmlns="http://www.w3.org/2000/svg" viewBox="0 0 50 50"><defs><style>.cls-1{fill:#549ae7;}.cls-2{opacity:0.25;}.cls-3{fill:#2d3c8d;}</style></defs><title>jackcons</title><path class="cls-1" d="M26.78,43.19C34.87,32.8,48.82,28,49,17S31.11.12,25.94,14l4.69,5.84-4.69,6.33,4.69,4.62-4.69,5.35Z"/><path class="cls-1" d="M23.22,43.19C15.13,32.8,1.18,28,1,17,.83,7,16.26,1.06,22.68,11.18l-1.82,4.35,3.55,4-5.54,4.51L25,30.74l-4.31,4.18Z"/><g class="cls-2"><path class="cls-3" d="M6.11,8.06A10.54,10.54,0,0,0,1,17c.18,11,14.13,15.81,22.22,26.2l-2.49-8.27S-3.31,21.38,6.11,8.06Z"/><path class="cls-3" d="M46,9.78a6.27,6.27,0,0,0,.09,1.37c4,11.09-20.13,26.15-20.13,26.15l.84,5.89C34.87,32.8,48.82,28,49,17A10,10,0,0,0,46,9.78Z"/></g><path class="cls-3" d="M26.78,44.19a1.24,1.24,0,0,1-.27,0,1,1,0,0,1-.72-.85l-.85-7.06a1.06,1.06,0,0,1,.24-.78l4.07-4.64-4-4a1,1,0,0,1-.1-1.31l4.24-5.7-4.21-5.24a1,1,0,0,1-.16-1c2.88-7.7,9.26-9.43,14.3-8.48C44.7,6.18,50.11,10.58,50,17c-.12,7.33-5.94,12-12.1,17-3.63,2.94-7.38,6-10.33,9.77A1,1,0,0,1,26.78,44.19Zm.2-7.73.52,4.31a75.46,75.46,0,0,1,9.14-8.28C42.68,27.6,47.89,23.37,48,17c.09-5.27-4.61-9-9.08-9.85-4.11-.78-9.31.6-11.84,6.69l4.33,5.39a1,1,0,0,1,0,1.22l-4.17,5.63,4.07,4a1,1,0,0,1,.05,1.37Z"/><path class="cls-3" d="M23.22,44.19a1,1,0,0,1-.79-.38C19.48,40,15.73,37,12.1,34c-6.16-5-12-9.7-12.1-17-.1-6,4.58-10.1,9.27-11.5,4.46-1.34,10.56-.69,14.26,5.13a1,1,0,0,1,.07.93L22,15.34l3.14,3.58a1,1,0,0,1,.25.74,1,1,0,0,1-.37.7l-4.71,3.83,5.44,5.87a1,1,0,0,1,0,1.4l-3.87,3.75,2.32,7.7a1,1,0,0,1-.5,1.17A1,1,0,0,1,23.22,44.19Zm-10-37.26a11.6,11.6,0,0,0-3.38.5C5.88,8.61,1.92,12,2,17c.11,6.39,5.32,10.62,11.36,15.51A90,90,0,0,1,21,39.12l-1.18-3.91a1,1,0,0,1,.26-1l3.61-3.5-5.5-5.93a1,1,0,0,1,.1-1.46L23,19.46l-2.87-3.27a1,1,0,0,1-.17-1l1.61-3.86A9.83,9.83,0,0,0,13.22,6.93Z"/></svg>