<svg id="Layer_1" data-name="Layer 1" xmlns="http://www.w3.org/2000/svg" viewBox="0 0 50 50"><defs><style>.cls-1{fill:#ffc35c;}.cls-2{fill:#fff;}.cls-3{opacity:0.25;}.cls-4{fill:#2d3c8d;}</style></defs><title>jackcons</title><path class="cls-1" d="M41,5.1,9,5a8,8,0,0,0-8,8V31.88A8.1,8.1,0,0,0,9,40l15.66,0v7.25L33.74,40H41a8,8,0,0,0,8-8V13.1A8,8,0,0,0,41,5.1Z"/><circle class="cls-2" cx="25.96" cy="22.27" r="9"/><g class="cls-3"><path class="cls-4" d="M26,17a9,9,0,0,1,8.8,7.13,8.76,8.76,0,0,0,.2-1.86,9,9,0,0,0-18,0,9.46,9.46,0,0,0,.19,1.86A9,9,0,0,1,26,17Z"/><path class="cls-4" d="M26,30.89a9,9,0,0,1-8.81-7.13A9.46,9.46,0,0,0,17,25.62a9,9,0,0,0,18,0,8.76,8.76,0,0,0-.2-1.86A9,9,0,0,1,26,30.89Z"/></g><path class="cls-4" d="M24.66,48.23a1,1,0,0,1-.44-.1,1,1,0,0,1-.56-.9V41L9,41a9.12,9.12,0,0,1-9-9.12V13A9,9,0,0,1,9,4H41a9.11,9.11,0,0,1,9,9.11V32a9,9,0,0,1-9,9H34.09l-8.81,7A1,1,0,0,1,24.66,48.23ZM9,6a7,7,0,0,0-7,7V31.88A7.11,7.11,0,0,0,9,39l15.66,0a1,1,0,0,1,1,1v5.17l7.46-5.95a1,1,0,0,1,.62-.22H41a7,7,0,0,0,7-7V13.1A7.1,7.1,0,0,0,41,6Z"/><path class="cls-4" d="M26,31.88a9.61,9.61,0,1,1,9.61-9.61A9.62,9.62,0,0,1,26,31.88Zm0-17.22a7.61,7.61,0,1,0,7.61,7.61A7.62,7.62,0,0,0,26,14.66Z"/><path class="cls-4" d="M20.05,29.17a1,1,0,0,1-.7-.29,1,1,0,0,1,0-1.41l11.8-11.81a1,1,0,0,1,1.42,0,1,1,0,0,1,0,1.41L20.76,28.88A1,1,0,0,1,20.05,29.17Z"/></svg>