<svg xmlns="http://www.w3.org/2000/svg"  viewBox="0 0 64 64" width="64px" height="64px"><radialGradient id="rXGZCXv04Fr6qqEe7jTOla" cx="360.529" cy="154.133" r="529.633" gradientTransform="matrix(1 0 0 -1 0 162)" gradientUnits="userSpaceOnUse" spreadMethod="reflect"><stop offset="0" stop-color="#afeeff"/><stop offset=".193" stop-color="#bbf1ff"/><stop offset=".703" stop-color="#d7f8ff"/><stop offset="1" stop-color="#e1faff"/></radialGradient><path fill="url(#rXGZCXv04Fr6qqEe7jTOla)" d="M60,37h-1.674c-0.542-0.103-1.047-0.333-1.435-0.703c-0.17-0.162-0.318-0.35-0.438-0.564 C55.166,33.414,56.809,31,59,31h1.302c1.896,0,3.595-1.355,3.693-3.248c0.105-2.018-1.501-3.687-3.495-3.687h-2.402 c-0.982,0-1.892-0.664-2.065-1.631C56.011,22.308,56,22.183,56,22.061c0.002-1.084,0.867-1.966,1.944-1.995 c1.511-0.041,2.864-1.146,3.035-2.649c0.014-0.12,0.02-0.238,0.02-0.355c-0.001-1.655-1.344-2.997-3-2.997h-2.302 c-0.216,0-2.431-0.019-2.64-0.054C53.039,14.007,53.019,14.004,53,14v0.065V23H32v-9h12.858c0.218-0.844,0.268-1.755-0.473-2.86 C43.466,9.769,41.873,9,40.223,9H35.5C34.672,9,34,8.328,34,7.5S34.672,6,35.5,6h0.331c1.625,0,3.08-1.217,3.165-2.839 C39.086,1.43,37.711,0,36,0H7.169c-1.625,0-3.08,1.217-3.165,2.839C3.914,4.569,5.289,6,7,6h7.5C15.328,6,16,6.672,16,7.5 S15.328,9,14.5,9H6c-2.209,0-4,1.791-4,4s1.791,4,4,4h13v6h-7l1,10.554c-0.536,0.401-0.917,0.99-0.987,1.688 c-0.092,0.921,0.318,1.75,0.987,2.253v2.522c-0.014,0.074-0.021,0.149-0.013,0.225C13.137,41.739,11.966,43,10.5,43H3.17 c-1.493,0-2.88,1.011-3.126,2.483c-0.122,0.731,0.022,1.423,0.343,2.005C0.923,48.458,2.004,49,3.112,49h1.581 c1.188,0,2.104,0.664,2.275,1.635C6.989,50.758,7,50.878,7,50.997C7.001,52.103,6.106,53,5.001,53H5 c-1.135,0-2.236,0.602-2.699,1.638C1.311,56.852,2.905,59,5,59h37c1.657,0,3-1.343,3-3s-1.343-3-3-3H31V43h20h3h4.83H60 c1.65,0,3-1.35,3-3S61.65,37,60,37z"/><radialGradient id="rXGZCXv04Fr6qqEe7jTOlb" cx="30.167" cy="126.333" r="41.484" gradientTransform="matrix(1 0 0 -1 0 162)" gradientUnits="userSpaceOnUse" spreadMethod="reflect"><stop offset="0" stop-color="#afeeff"/><stop offset=".193" stop-color="#bbf1ff"/><stop offset=".703" stop-color="#d7f8ff"/><stop offset="1" stop-color="#e1faff"/></radialGradient><path fill="url(#rXGZCXv04Fr6qqEe7jTOlb)" d="M4.5 35A2.5 2.5 0 1 0 4.5 40A2.5 2.5 0 1 0 4.5 35Z"/><linearGradient id="rXGZCXv04Fr6qqEe7jTOlc" x1="32" x2="32" y1="1189" y2="1154" gradientTransform="translate(0 -1134)" gradientUnits="userSpaceOnUse" spreadMethod="reflect"><stop offset="0" stop-color="#ffc662"/><stop offset=".004" stop-color="#ffc662"/><stop offset=".609" stop-color="#ffc582"/><stop offset="1" stop-color="#ffc491"/><stop offset="1" stop-color="#ffc491"/></linearGradient><path fill="url(#rXGZCXv04Fr6qqEe7jTOlc)" d="M9,50V20h46v30c0,2.761-2.239,5-5,5H14C11.239,55,9,52.761,9,50z"/><linearGradient id="rXGZCXv04Fr6qqEe7jTOld" x1="32" x2="32" y1="1157" y2="1144" gradientTransform="translate(0 -1134)" gradientUnits="userSpaceOnUse" spreadMethod="reflect"><stop offset="0" stop-color="#ff634d"/><stop offset=".208" stop-color="#fd6464"/><stop offset=".522" stop-color="#fc6582"/><stop offset=".793" stop-color="#fa6694"/><stop offset=".989" stop-color="#fa669a"/><stop offset="1" stop-color="#fa669a"/></linearGradient><path fill="url(#rXGZCXv04Fr6qqEe7jTOld)" d="M55,14.8V23H9v-8.2c0-2.653,2.166-4.8,4.842-4.8h36.316C52.834,10,55,12.147,55,14.8"/><linearGradient id="rXGZCXv04Fr6qqEe7jTOle" x1="21.5" x2="21.5" y1="1154" y2="1144" gradientTransform="translate(0 -1134)" gradientUnits="userSpaceOnUse" spreadMethod="reflect"><stop offset="0" stop-color="#ff5840"/><stop offset=".007" stop-color="#ff5840"/><stop offset=".989" stop-color="#fa528c"/><stop offset="1" stop-color="#fa528c"/></linearGradient><path fill="url(#rXGZCXv04Fr6qqEe7jTOle)" d="M24.655,10h-6.311C16.928,10.995,16,12.638,16,14.5c0,3.036,2.464,5.5,5.5,5.5 s5.5-2.464,5.5-5.5C27,12.638,26.072,10.995,24.655,10z"/><linearGradient id="rXGZCXv04Fr6qqEe7jTOlf" x1="21.5" x2="21.5" y1="1140" y2="1151" gradientTransform="translate(0 -1134)" gradientUnits="userSpaceOnUse" spreadMethod="reflect"><stop offset="0" stop-color="#a4a4a4"/><stop offset=".63" stop-color="#7f7f7f"/><stop offset="1" stop-color="#6f6f6f"/><stop offset="1" stop-color="#6f6f6f"/></linearGradient><path fill="url(#rXGZCXv04Fr6qqEe7jTOlf)" d="M21.5,17L21.5,17c-1.375,0-2.5-1.125-2.5-2.5v-6C19,7.125,20.125,6,21.5,6l0,0 C22.875,6,24,7.125,24,8.5v6C24,15.875,22.875,17,21.5,17z"/><linearGradient id="rXGZCXv04Fr6qqEe7jTOlg" x1="42.5" x2="42.5" y1="1154" y2="1144" gradientTransform="translate(0 -1134)" gradientUnits="userSpaceOnUse" spreadMethod="reflect"><stop offset="0" stop-color="#ff5840"/><stop offset=".007" stop-color="#ff5840"/><stop offset=".989" stop-color="#fa528c"/><stop offset="1" stop-color="#fa528c"/></linearGradient><path fill="url(#rXGZCXv04Fr6qqEe7jTOlg)" d="M45.655,10h-6.311C37.928,10.995,37,12.638,37,14.5c0,3.036,2.464,5.5,5.5,5.5 s5.5-2.464,5.5-5.5C48,12.638,47.072,10.995,45.655,10z"/><linearGradient id="rXGZCXv04Fr6qqEe7jTOlh" x1="42.5" x2="42.5" y1="1140" y2="1151" gradientTransform="translate(0 -1134)" gradientUnits="userSpaceOnUse" spreadMethod="reflect"><stop offset="0" stop-color="#a4a4a4"/><stop offset=".63" stop-color="#7f7f7f"/><stop offset="1" stop-color="#6f6f6f"/><stop offset="1" stop-color="#6f6f6f"/></linearGradient><path fill="url(#rXGZCXv04Fr6qqEe7jTOlh)" d="M42.5,17L42.5,17c-1.375,0-2.5-1.125-2.5-2.5v-6C40,7.125,41.125,6,42.5,6l0,0 C43.875,6,45,7.125,45,8.5v6C45,15.875,43.875,17,42.5,17z"/><linearGradient id="rXGZCXv04Fr6qqEe7jTOli" x1="17.5" x2="17.5" y1="1188.125" y2="1155.871" gradientTransform="translate(0 -1134)" gradientUnits="userSpaceOnUse" spreadMethod="reflect"><stop offset="0" stop-color="#ffce76"/><stop offset=".004" stop-color="#ffce76"/><stop offset=".605" stop-color="#ffcd92"/><stop offset="1" stop-color="#ffcca0"/><stop offset="1" stop-color="#ffcca0"/></linearGradient><path fill="url(#rXGZCXv04Fr6qqEe7jTOli)" d="M9,34h8.893c0.996,0,1.92-0.681,2.08-1.664C20.176,31.083,19.215,30,18,30h-1.5 c-0.828,0-1.5-0.672-1.5-1.5s0.672-1.5,1.5-1.5h7.393c0.996,0,1.92-0.681,2.08-1.664C26.176,24.083,25.215,23,24,23H9V34z"/><linearGradient id="rXGZCXv04Fr6qqEe7jTOlj" x1="18" x2="18" y1="1192.25" y2="1159.865" gradientTransform="translate(0 -1134)" gradientUnits="userSpaceOnUse" spreadMethod="reflect"><stop offset="0" stop-color="#ffce76"/><stop offset=".004" stop-color="#ffce76"/><stop offset=".605" stop-color="#ffcd92"/><stop offset="1" stop-color="#ffcca0"/><stop offset="1" stop-color="#ffcca0"/></linearGradient><path fill="url(#rXGZCXv04Fr6qqEe7jTOlj)" d="M18 40A2 2 0 1 0 18 44A2 2 0 1 0 18 40Z"/><path fill="#ffb977" d="M46 28A3 3 0 1 0 46 34A3 3 0 1 0 46 28Z"/><linearGradient id="rXGZCXv04Fr6qqEe7jTOlk" x1="32" x2="32" y1="1182" y2="1163" gradientTransform="translate(0 -1134)" gradientUnits="userSpaceOnUse" spreadMethod="reflect"><stop offset="0" stop-color="#ffe79f"/><stop offset=".119" stop-color="#ffe9a6"/><stop offset="1" stop-color="#fff5d5"/></linearGradient><path fill="url(#rXGZCXv04Fr6qqEe7jTOlk)" d="M20.429,29h2.143C23.36,29,24,29.64,24,30.429v2.143C24,33.36,23.36,34,22.571,34h-2.143 C19.64,34,19,33.36,19,32.571v-2.143C19,29.64,19.64,29,20.429,29z M20.429,36h2.143C23.36,36,24,36.64,24,37.429v2.143 C24,40.36,23.36,41,22.571,41h-2.143C19.64,41,19,40.36,19,39.571v-2.143C19,36.64,19.64,36,20.429,36z M20.429,43h2.143 C23.36,43,24,43.64,24,44.429v2.143C24,47.36,23.36,48,22.571,48h-2.143C19.64,48,19,47.36,19,46.571v-2.143 C19,43.64,19.64,43,20.429,43z M27.429,29h2.143C30.36,29,31,29.64,31,30.429v2.143C31,33.36,30.36,34,29.571,34h-2.143 C26.64,34,26,33.36,26,32.571v-2.143C26,29.64,26.64,29,27.429,29z M27.429,36h2.143C30.36,36,31,36.64,31,37.429v2.143 C31,40.36,30.36,41,29.571,41h-2.143C26.64,41,26,40.36,26,39.571v-2.143C26,36.64,26.64,36,27.429,36z M27.429,43h2.143 C30.36,43,31,43.64,31,44.429v2.143C31,47.36,30.36,48,29.571,48h-2.143C26.64,48,26,47.36,26,46.571v-2.143 C26,43.64,26.64,43,27.429,43z M34.429,29h2.143C37.36,29,38,29.64,38,30.429v2.143C38,33.36,37.36,34,36.571,34h-2.143 C33.64,34,33,33.36,33,32.571v-2.143C33,29.64,33.64,29,34.429,29z M34.429,36h2.143C37.36,36,38,36.64,38,37.429v2.143 C38,40.36,37.36,41,36.571,41h-2.143C33.64,41,33,40.36,33,39.571v-2.143C33,36.64,33.64,36,34.429,36z M34.429,43h2.143 C37.36,43,38,43.64,38,44.429v2.143C38,47.36,37.36,48,36.571,48h-2.143C33.64,48,33,47.36,33,46.571v-2.143 C33,43.64,33.64,43,34.429,43z M41.429,29h2.143C44.36,29,45,29.64,45,30.429v2.143C45,33.36,44.36,34,43.571,34h-2.143 C40.64,34,40,33.36,40,32.571v-2.143C40,29.64,40.64,29,41.429,29z M41.429,36h2.143C44.36,36,45,36.64,45,37.429v2.143 C45,40.36,44.36,41,43.571,41h-2.143C40.64,41,40,40.36,40,39.571v-2.143C40,36.64,40.64,36,41.429,36z M41.429,43h2.143 C44.36,43,45,43.64,45,44.429v2.143C45,47.36,44.36,48,43.571,48h-2.143C40.64,48,40,47.36,40,46.571v-2.143 C40,43.64,40.64,43,41.429,43z"/><linearGradient id="rXGZCXv04Fr6qqEe7jTOll" x1="-1657.965" x2="-1657.965" y1="-679.032" y2="-669.019" gradientTransform="matrix(0 -1 -1 0 -614 -1615)" gradientUnits="userSpaceOnUse" spreadMethod="reflect"><stop offset="0" stop-color="#ff634d"/><stop offset=".208" stop-color="#fd6464"/><stop offset=".522" stop-color="#fc6582"/><stop offset=".793" stop-color="#fa6694"/><stop offset=".989" stop-color="#fa669a"/><stop offset="1" stop-color="#fa669a"/></linearGradient><path fill="url(#rXGZCXv04Fr6qqEe7jTOll)" d="M63.577,43.134l-3.711-3.709c-0.564-0.566-1.482-0.566-2.046,0l-1.747,1.747l5.758,5.757 l1.746-1.747C64.141,44.615,64.141,43.7,63.577,43.134"/><linearGradient id="rXGZCXv04Fr6qqEe7jTOlm" x1="-1668.059" x2="-1668.059" y1="-655.128" y2="-671.621" gradientTransform="matrix(0 -1 -1 0 -614 -1615)" gradientUnits="userSpaceOnUse" spreadMethod="reflect"><stop offset="0" stop-color="#42d778"/><stop offset=".428" stop-color="#3dca76"/><stop offset="1" stop-color="#34b171"/></linearGradient><path fill="url(#rXGZCXv04Fr6qqEe7jTOlm)" d="M46.694 62.066L40.937 56.309 53.193 44.053 58.95 49.81z"/><linearGradient id="rXGZCXv04Fr6qqEe7jTOln" x1="-1660.493" x2="-1660.493" y1="-664.957" y2="-673.596" gradientTransform="matrix(0 -1 -1 0 -614 -1615)" gradientUnits="userSpaceOnUse" spreadMethod="reflect"><stop offset="0" stop-color="#d8d8d8"/><stop offset=".759" stop-color="#c9c9c9"/><stop offset="1" stop-color="#c3c3c3"/></linearGradient><path fill="url(#rXGZCXv04Fr6qqEe7jTOln)" d="M58.953 49.811L53.193 44.054 56.071 41.175 61.831 46.931z"/><linearGradient id="rXGZCXv04Fr6qqEe7jTOlo" x1="-1675.152" x2="-1675.152" y1="-668.262" y2="-653.317" gradientTransform="matrix(0 -1 -1 0 -614 -1615)" gradientUnits="userSpaceOnUse" spreadMethod="reflect"><stop offset="0" stop-color="#ffce76"/><stop offset=".004" stop-color="#ffce76"/><stop offset=".605" stop-color="#ffcd92"/><stop offset="1" stop-color="#ffcca0"/><stop offset="1" stop-color="#ffcca0"/></linearGradient><path fill="url(#rXGZCXv04Fr6qqEe7jTOlo)" d="M40.938 56.305L39 64 46.695 62.063z"/><linearGradient id="rXGZCXv04Fr6qqEe7jTOlp" x1="-1677.055" x2="-1677.055" y1="-652.197" y2="-656.087" gradientTransform="matrix(0 -1 -1 0 -614 -1615)" gradientUnits="userSpaceOnUse" spreadMethod="reflect"><stop offset="0" stop-color="#a4a4a4"/><stop offset=".63" stop-color="#7f7f7f"/><stop offset="1" stop-color="#6f6f6f"/><stop offset="1" stop-color="#6f6f6f"/></linearGradient><path fill="url(#rXGZCXv04Fr6qqEe7jTOlp)" d="M39.979 60.11L39 64 42.89 63.021z"/></svg>