<svg width="49" height="49" viewBox="0 0 49 49" fill="none" xmlns="http://www.w3.org/2000/svg">
<path d="M24.0342 0.640991C19.3864 0.640991 14.8429 2.01924 10.9783 4.60146C7.11378 7.18367 4.10173 10.8539 2.32307 15.1479C0.544408 19.442 0.0790292 24.1671 0.985782 28.7256C1.89253 33.2842 4.13069 37.4715 7.41723 40.758C10.7038 44.0445 14.8911 46.2827 19.4496 47.1894C24.0082 48.0962 28.7332 47.6308 33.0273 45.8522C37.3214 44.0735 40.9916 41.0614 43.5738 37.1969C46.156 33.3323 47.5342 28.7889 47.5342 24.141C47.5342 17.9084 45.0583 11.9311 40.6512 7.52398C36.2441 3.11688 30.2668 0.640991 24.0342 0.640991ZM24.0342 32.911C22.2997 32.911 20.6041 32.3966 19.1619 31.433C17.7197 30.4693 16.5956 29.0996 15.9318 27.4971C15.268 25.8946 15.0944 24.1313 15.4327 22.43C15.7711 20.7288 16.6064 19.1662 17.8329 17.9397C19.0594 16.7132 20.6221 15.8779 22.3233 15.5395C24.0245 15.2011 25.7879 15.3748 27.3904 16.0386C28.9929 16.7023 30.3626 17.8264 31.3262 19.2686C32.2899 20.7109 32.8042 22.4064 32.8042 24.141C32.8042 26.4669 31.8803 28.6976 30.2356 30.3423C28.5909 31.987 26.3602 32.911 24.0342 32.911Z" fill="#F69683"/>
<path d="M31.2242 21.331L26.7042 16.801L37.3342 1.97101L46.0642 10.691L31.2242 21.331Z" fill="#F2F3F8"/>
<path d="M16.8042 26.701L21.3242 31.231L10.6842 46.061L1.96424 37.341L16.8042 26.701Z" fill="#F2F3F8"/>
<path d="M26.7042 31.231L31.2242 26.701L46.0642 37.341L37.3342 46.061L26.7042 31.231Z" fill="#F2F3F8"/>
<path d="M21.3242 16.801L16.8042 21.331L1.96424 10.691L10.6842 1.97101L21.3242 16.801Z" fill="#F2F3F8"/>
<g opacity="0.25">
<path opacity="0.25" d="M2.62424 15.691L15.0442 22.561L15.6842 20.681L4.10424 12.451L2.62424 15.691Z" fill="#2D3C8D"/>
<path opacity="0.25" d="M45.3942 15.691L32.9742 22.561L32.3342 20.681L43.9142 12.451L45.3942 15.691Z" fill="#2D3C8D"/>
<path opacity="0.25" d="M15.7042 45.041L22.8542 32.911L20.6842 32.341L12.4342 43.921L15.7042 45.041Z" fill="#2D3C8D"/>
<path opacity="0.25" d="M32.1842 45.041L25.0342 32.911L27.2042 32.341L35.4442 43.921L32.1842 45.041Z" fill="#2D3C8D"/>
</g>
<path d="M44.0642 36.351C43.893 36.3468 43.7251 36.3022 43.5742 36.221C43.4588 36.1565 43.3573 36.0698 43.2756 35.9658C43.194 35.8618 43.1337 35.7427 43.0984 35.6153C43.063 35.4879 43.0533 35.3547 43.0698 35.2235C43.0862 35.0923 43.1285 34.9657 43.1942 34.851C45.0851 31.5007 46.067 27.7143 46.0424 23.8674C46.0178 20.0204 44.9877 16.2468 43.0542 12.921C42.9164 12.6965 42.8727 12.4267 42.9326 12.1702C42.9925 11.9137 43.1512 11.6912 43.3742 11.551C43.4878 11.4844 43.6133 11.441 43.7437 11.4231C43.8741 11.4052 44.0067 11.4131 44.134 11.4466C44.2612 11.48 44.3807 11.5383 44.4854 11.618C44.5901 11.6977 44.6781 11.7972 44.7442 11.911C46.8528 15.5406 47.976 19.6584 48.0023 23.856C48.0286 28.0536 46.9572 32.1852 44.8942 35.841C44.8108 35.9897 44.6908 36.1146 44.5455 36.2039C44.4003 36.2931 44.2346 36.3438 44.0642 36.351Z" fill="#2D3C8D"/>
<path d="M12.3742 5.15099C12.1552 5.15093 11.9421 5.07891 11.768 4.94602C11.5938 4.81313 11.4681 4.62671 11.4101 4.41542C11.3522 4.20413 11.3653 3.97967 11.4473 3.77652C11.5293 3.57337 11.6758 3.40279 11.8642 3.29099C15.5434 1.13595 19.7304 0 23.9942 0C28.2581 0 32.445 1.13595 36.1242 3.29099C36.3419 3.42936 36.4977 3.64648 36.5591 3.89699C36.6204 4.14751 36.5826 4.41205 36.4535 4.63535C36.3245 4.85865 36.1141 5.02344 35.8664 5.09531C35.6187 5.16717 35.3528 5.14054 35.1242 5.02099C31.7503 3.04334 27.9101 2.00083 23.9992 2.00083C20.0884 2.00083 16.2482 3.04334 12.8742 5.02099C12.7239 5.11226 12.55 5.15745 12.3742 5.15099Z" fill="#2D3C8D"/>
<path d="M3.96424 36.331C3.78704 36.3307 3.61311 36.2833 3.46024 36.1937C3.30738 36.1041 3.18107 35.9755 3.09424 35.821C1.04052 32.1712 -0.0258303 28.0489 0.000475161 23.8611C0.0267807 19.6733 1.14483 15.5647 3.24424 11.941C3.30186 11.8135 3.38561 11.6995 3.49005 11.6064C3.5945 11.5133 3.71732 11.4431 3.85058 11.4005C3.98384 11.3578 4.12457 11.3436 4.26367 11.3587C4.40277 11.3738 4.53715 11.418 4.65812 11.4883C4.77908 11.5587 4.88394 11.6536 4.96591 11.767C5.04789 11.8804 5.10515 12.0097 5.13401 12.1466C5.16286 12.2836 5.16266 12.425 5.13341 12.5618C5.10417 12.6987 5.04654 12.8278 4.96424 12.941C3.04069 16.2651 2.01701 20.0333 1.99422 23.8738C1.97142 27.7142 2.95028 31.4943 4.83424 34.841C4.96379 35.0718 4.99654 35.3446 4.92531 35.5995C4.85408 35.8545 4.68468 36.0708 4.45424 36.201C4.30478 36.2857 4.13603 36.3305 3.96424 36.331Z" fill="#2D3C8D"/>
<path d="M24.0242 48.031C19.774 48.0242 15.6018 46.8888 11.9342 44.741C11.8205 44.6748 11.7209 44.5869 11.6412 44.4822C11.5615 44.3774 11.5033 44.258 11.4699 44.1307C11.4364 44.0035 11.4284 43.8708 11.4463 43.7405C11.4642 43.6101 11.5077 43.4845 11.5742 43.371C11.6404 43.2572 11.7284 43.1577 11.8331 43.078C11.9378 42.9983 12.0572 42.9401 12.1845 42.9066C12.3118 42.8732 12.4444 42.8652 12.5748 42.8831C12.7052 42.901 12.8307 42.9445 12.9442 43.011C16.2808 44.9556 20.0704 45.9877 23.9322 46.0035C27.794 46.0193 31.5919 45.0182 34.9442 43.101C35.0581 43.0286 35.1853 42.9801 35.3184 42.9582C35.4515 42.9363 35.5876 42.9415 35.7186 42.9736C35.8496 43.0057 35.9728 43.064 36.0807 43.1449C36.1886 43.2258 36.279 43.3277 36.3465 43.4445C36.414 43.5612 36.4572 43.6904 36.4734 43.8243C36.4897 43.9582 36.4787 44.094 36.4411 44.2235C36.4035 44.3531 36.3402 44.4737 36.2548 44.578C36.1694 44.6824 36.0637 44.7685 35.9442 44.831C32.3178 46.9185 28.2086 48.0217 24.0242 48.031Z" fill="#2D3C8D"/>
<path d="M32.3742 28.351C32.2476 28.3513 32.122 28.3275 32.0042 28.281C31.7592 28.1811 31.5638 27.9882 31.4607 27.7446C31.3576 27.5009 31.3553 27.2263 31.4542 26.981C32.2274 25.0557 32.2274 22.9062 31.4542 20.981C31.3548 20.7343 31.3574 20.4583 31.4615 20.2135C31.5656 19.9688 31.7626 19.7754 32.0092 19.676C32.2559 19.5765 32.532 19.5791 32.7767 19.6832C33.0214 19.7873 33.2148 19.9843 33.3142 20.231C34.2792 22.6275 34.2792 25.3045 33.3142 27.701C33.2427 27.8924 33.1143 28.0573 32.9462 28.1735C32.7782 28.2897 32.5786 28.3516 32.3742 28.351Z" fill="#2D3C8D"/>
<path d="M20.6442 16.741C20.5129 16.7659 20.378 16.7648 20.2471 16.7376C20.1162 16.7104 19.992 16.6576 19.8815 16.5824C19.6583 16.4305 19.5046 16.1962 19.4542 15.931C19.4038 15.6658 19.4609 15.3914 19.6128 15.1682C19.7647 14.945 19.999 14.7914 20.2642 14.741C22.6564 13.7714 25.3321 13.7714 27.7242 14.741C27.9709 14.8391 28.1685 15.0312 28.2735 15.275C28.3785 15.5188 28.3824 15.7943 28.2842 16.041C28.1861 16.2876 27.994 16.4852 27.7502 16.5902C27.5064 16.6952 27.2309 16.6991 26.9842 16.601C25.059 15.8278 22.9095 15.8278 20.9842 16.601C20.8805 16.6682 20.7652 16.7157 20.6442 16.741Z" fill="#2D3C8D"/>
<path d="M15.7042 28.391C15.5016 28.3896 15.3042 28.3267 15.1381 28.2107C14.972 28.0946 14.8451 27.9308 14.7742 27.741C13.8147 25.3504 13.8147 22.6816 14.7742 20.291C14.8724 20.0443 15.0645 19.8468 15.3083 19.7418C15.5521 19.6367 15.8276 19.6329 16.0742 19.731C16.3209 19.8291 16.5185 20.0212 16.6235 20.265C16.7285 20.5088 16.7324 20.7843 16.6342 21.031C15.8558 22.9553 15.8558 25.1067 16.6342 27.031C16.7332 27.2764 16.7308 27.5509 16.6278 27.7946C16.5247 28.0383 16.3292 28.2311 16.0842 28.331C15.9622 28.3736 15.8335 28.3939 15.7042 28.391Z" fill="#2D3C8D"/>
<path d="M24.0242 33.991C22.7529 33.991 21.4933 33.7465 20.3142 33.271C20.192 33.2225 20.0806 33.1504 19.9863 33.0588C19.892 32.9672 19.8167 32.8579 19.7647 32.7371C19.7126 32.6164 19.685 32.4866 19.6832 32.3551C19.6814 32.2236 19.7055 32.0931 19.7542 31.971C19.8027 31.8488 19.8748 31.7373 19.9665 31.643C20.0581 31.5487 20.1674 31.4734 20.2881 31.4214C20.4089 31.3694 20.5387 31.3417 20.6701 31.3399C20.8016 31.3381 20.9321 31.3623 21.0542 31.411C22.9795 32.1842 25.129 32.1842 27.0542 31.411C27.1773 31.3521 27.3112 31.319 27.4476 31.3137C27.584 31.3085 27.72 31.3312 27.8472 31.3805C27.9745 31.4298 28.0903 31.5047 28.1876 31.6004C28.2848 31.6962 28.3615 31.8108 28.4127 31.9373C28.464 32.0638 28.4889 32.1994 28.4857 32.3358C28.4826 32.4723 28.4516 32.6067 28.3946 32.7307C28.3376 32.8547 28.2558 32.9657 28.1543 33.0569C28.0528 33.1481 27.9336 33.2176 27.8042 33.261C26.6034 33.7469 25.3196 33.9948 24.0242 33.991Z" fill="#2D3C8D"/>
<path d="M31.2242 22.331C30.9605 22.3272 30.7089 22.2194 30.5242 22.031L25.9942 17.511C25.8274 17.3427 25.7258 17.1206 25.7075 16.8843C25.6892 16.6481 25.7554 16.413 25.8942 16.221L36.5242 1.39098C36.608 1.27209 36.7168 1.17292 36.8429 1.10038C36.9689 1.02784 37.1093 0.983678 37.2542 0.970977C37.3988 0.962219 37.5436 0.983462 37.6796 1.03337C37.8155 1.08328 37.9397 1.16077 38.0442 1.26098L46.7642 9.99098C46.8657 10.0925 46.9442 10.2148 46.9942 10.3494C47.0443 10.484 47.0647 10.6278 47.0542 10.771C47.0441 10.9168 47.0022 11.0586 46.9313 11.1865C46.8605 11.3143 46.7625 11.4251 46.6442 11.511L31.8142 22.141C31.6427 22.2652 31.4361 22.3317 31.2242 22.331ZM28.0142 16.741L31.3742 20.021L44.5642 10.571L37.4642 3.51098L28.0142 16.741Z" fill="#2D3C8D"/>
<path d="M10.6942 47.061C10.5626 47.0618 10.4322 47.0365 10.3103 46.9868C10.1885 46.937 10.0777 46.8637 9.98424 46.771L1.26424 38.051C1.16084 37.9494 1.08077 37.8265 1.02958 37.6909C0.978383 37.5553 0.957286 37.4101 0.96775 37.2656C0.978213 37.121 1.01999 36.9804 1.09018 36.8536C1.16036 36.7267 1.25729 36.6167 1.37424 36.531L16.2142 25.891C16.4074 25.7534 16.6431 25.6889 16.8794 25.7091C17.1157 25.7292 17.3372 25.8327 17.5042 26.001L22.0342 30.521C22.201 30.6893 22.3027 30.9114 22.321 31.1476C22.3393 31.3839 22.2731 31.619 22.1342 31.811L11.5042 46.651C11.4194 46.768 11.3102 46.8653 11.1842 46.9361C11.0582 47.0069 10.9183 47.0495 10.7742 47.061H10.6942ZM3.50424 37.471L10.5642 44.521L20.0142 31.341L16.6942 28.011L3.50424 37.471Z" fill="#2D3C8D"/>
<path d="M37.3742 47.061H37.2942C37.1502 47.0495 37.0103 47.0069 36.8843 46.9361C36.7582 46.8653 36.6491 46.768 36.5642 46.651L25.8942 31.811C25.7554 31.619 25.6892 31.3839 25.7075 31.1476C25.7258 30.9114 25.8274 30.6893 25.9942 30.521L30.5242 26.001C30.6913 25.8327 30.9127 25.7292 31.149 25.7091C31.3853 25.6889 31.6211 25.7534 31.8142 25.891L46.6442 36.531C46.7619 36.6159 46.8596 36.7253 46.9307 36.8518C47.0018 36.9782 47.0446 37.1186 47.056 37.2632C47.0674 37.4078 47.0472 37.5532 46.9968 37.6892C46.9465 37.8253 46.8671 37.9487 46.7642 38.051L38.0442 46.741C37.8702 46.9297 37.6304 47.0443 37.3742 47.061ZM28.0142 31.341L37.4642 44.521L44.5242 37.471L31.3742 28.011L28.0142 31.341Z" fill="#2D3C8D"/>
<path d="M16.8042 22.331C16.5924 22.3317 16.3858 22.2652 16.2142 22.141L1.37424 11.511C1.25402 11.4209 1.15562 11.3049 1.08638 11.1716C1.01713 11.0383 0.9788 10.8911 0.974241 10.741C0.963743 10.5977 0.984211 10.454 1.03425 10.3194C1.08429 10.1848 1.16274 10.0625 1.26424 9.96096L9.98424 1.23096C10.0869 1.12812 10.2108 1.0489 10.3473 0.998813C10.4837 0.948729 10.6294 0.928987 10.7742 0.940961C10.9191 0.953663 11.0595 0.997823 11.1856 1.07036C11.3117 1.1429 11.4204 1.24207 11.5042 1.36096L22.1342 16.221C22.2731 16.413 22.3393 16.6481 22.321 16.8843C22.3027 17.1206 22.2011 17.3427 22.0342 17.511L17.5042 22.031C17.3196 22.2194 17.068 22.3272 16.8042 22.331ZM3.50424 10.571L16.6942 20.021L20.0142 16.741L10.5642 3.51096L3.50424 10.571Z" fill="#2D3C8D"/>
</svg>
