<svg width="37" height="49" viewBox="0 0 37 49" fill="none" xmlns="http://www.w3.org/2000/svg">
<path d="M28.1724 0.840088H8.35244L1.00244 47.8401H6.72244L7.62244 42.9801H28.9024L29.8024 47.8401H35.5224L28.1724 0.840088Z" fill="#FFC35C"/>
<g opacity="0.25">
<path opacity="0.25" d="M24.6624 5.1001H11.8524V9.2801H24.6624V5.1001Z" fill="#2D3C8D"/>
</g>
<path d="M9.91244 34.5901H26.6024C27.0755 34.6022 27.5431 34.487 27.9563 34.2565C28.3696 34.026 28.7133 33.6886 28.9514 33.2797C29.1896 32.8709 29.3135 32.4055 29.3102 31.9323C29.3068 31.4591 29.1764 30.9955 28.9324 30.5901L20.6024 17.2201C20.35 16.8321 20.0046 16.5134 19.5977 16.2927C19.1908 16.0721 18.7353 15.9565 18.2724 15.9565C17.8096 15.9565 17.354 16.0721 16.9472 16.2927C16.5403 16.5134 16.1949 16.8321 15.9424 17.2201L7.60244 30.5801C7.35691 30.9843 7.22448 31.4471 7.21899 31.92C7.2135 32.3929 7.33515 32.8586 7.57123 33.2684C7.8073 33.6782 8.14914 34.0171 8.56099 34.2496C8.97284 34.4821 9.43959 34.5997 9.91244 34.5901Z" fill="white"/>
<path d="M35.5224 49.0001H29.8024C29.5657 49.0039 29.3352 48.9236 29.1521 48.7735C28.9689 48.6233 28.845 48.413 28.8024 48.1801L28.0524 44.1801H8.45244L7.70244 48.1801C7.65984 48.413 7.53595 48.6233 7.35283 48.7735C7.1697 48.9236 6.93923 49.0039 6.70244 49.0001H1.00244C0.857998 49.0001 0.71527 48.9688 0.584073 48.9084C0.452876 48.848 0.336325 48.7598 0.242439 48.6501C0.14751 48.5399 0.0777527 48.4104 0.0380293 48.2705C-0.00169402 48.1306 -0.0104272 47.9837 0.0124389 47.8401L7.36244 0.840083C7.40077 0.603458 7.52283 0.388475 7.70638 0.234295C7.88992 0.0801155 8.12275 -0.00300208 8.36244 8.28892e-05H28.1724C28.4121 -0.00300208 28.645 0.0801155 28.8285 0.234295C29.0121 0.388475 29.1341 0.603458 29.1724 0.840083L36.5224 47.8401C36.5453 47.9837 36.5366 48.1306 36.4968 48.2705C36.4571 48.4104 36.3874 48.5399 36.2924 48.6501C36.1975 48.7611 36.0793 48.85 35.9463 48.9105C35.8132 48.971 35.6686 49.0015 35.5224 49.0001ZM30.6324 47.0001H34.3524L27.3524 2.00008H9.20244L2.20244 47.0001H5.92244L6.66244 43.0001C6.70504 42.7671 6.82893 42.5568 7.01205 42.4067C7.19518 42.2565 7.42565 42.1762 7.66244 42.1801H28.9024C29.1392 42.1762 29.3697 42.2565 29.5528 42.4067C29.736 42.5568 29.8598 42.7671 29.9024 43.0001L30.6324 47.0001Z" fill="#2D3C8D"/>
<path d="M24.6724 10.2901H11.8524C11.5872 10.2901 11.3329 10.1847 11.1453 9.9972C10.9578 9.80967 10.8524 9.55531 10.8524 9.2901V5.1001C10.8524 4.83488 10.9578 4.58053 11.1453 4.39299C11.3329 4.20545 11.5872 4.1001 11.8524 4.1001H24.6724C24.9377 4.1001 25.192 4.20545 25.3795 4.39299C25.5671 4.58053 25.6724 4.83488 25.6724 5.1001V9.2901C25.6724 9.55531 25.5671 9.80967 25.3795 9.9972C25.192 10.1847 24.9377 10.2901 24.6724 10.2901ZM12.8524 8.2901H23.6724V6.1001H12.8524V8.2901Z" fill="#2D3C8D"/>
<path d="M26.6024 35.5901H9.91244C9.23955 35.6009 8.57632 35.429 7.99343 35.0926C7.41053 34.7563 6.9298 34.2681 6.60244 33.6801C6.28868 33.1227 6.13225 32.4906 6.14987 31.8512C6.16748 31.2119 6.35847 30.5893 6.70244 30.0501L15.0424 16.6901C15.3808 16.1536 15.8504 15.7123 16.4069 15.4078C16.9633 15.1034 17.5882 14.9458 18.2224 14.9501C18.8556 14.9447 19.4795 15.1018 20.0345 15.4064C20.5895 15.7111 21.0571 16.1531 21.3924 16.6901L29.7424 30.0501C30.0864 30.5893 30.2774 31.2119 30.295 31.8512C30.3126 32.4906 30.1562 33.1227 29.8424 33.6801C29.5208 34.2576 29.0511 34.739 28.4816 35.0747C27.9121 35.4104 27.2635 35.5883 26.6024 35.5901ZM18.2624 16.9501C17.9681 16.9465 17.6776 17.0181 17.4186 17.1581C17.1597 17.2981 16.9407 17.5018 16.7824 17.7501L8.43244 31.1101C8.28478 31.3508 8.20662 31.6277 8.20662 31.9101C8.20662 32.1925 8.28478 32.4694 8.43244 32.7101C8.58168 32.9812 8.80213 33.2065 9.06999 33.3616C9.33785 33.5167 9.64297 33.5957 9.95244 33.5901H26.6024C26.9119 33.5957 27.217 33.5167 27.4849 33.3616C27.7528 33.2065 27.9732 32.9812 28.1224 32.7101C28.2701 32.4694 28.3483 32.1925 28.3483 31.9101C28.3483 31.6277 28.2701 31.3508 28.1224 31.1101L19.7424 17.7501C19.5842 17.5018 19.3652 17.2981 19.1062 17.1581C18.8472 17.0181 18.5568 16.9465 18.2624 16.9501Z" fill="#2D3C8D"/>
<path d="M15.6024 29.0601C15.432 29.0596 15.2645 29.0155 15.1158 28.932C14.9672 28.8485 14.8424 28.7285 14.7532 28.5832C14.664 28.4379 14.6135 28.2722 14.6063 28.1019C14.5992 27.9316 14.6357 27.7623 14.7124 27.6101L16.0824 24.8401C16.2072 24.6013 16.4181 24.4189 16.6724 24.3301L19.6024 23.3601C19.7286 23.3136 19.8629 23.2931 19.9972 23.2997C20.1315 23.3063 20.2631 23.3399 20.3841 23.3986C20.5051 23.4572 20.6131 23.5397 20.7015 23.641C20.7899 23.7423 20.857 23.8604 20.8987 23.9882C20.9404 24.1161 20.9559 24.251 20.9443 24.385C20.9326 24.519 20.8941 24.6492 20.831 24.7679C20.7678 24.8867 20.6814 24.9914 20.5768 25.076C20.4723 25.1606 20.3518 25.2232 20.2224 25.2601L17.7224 26.0701L16.5324 28.4701C16.4522 28.6487 16.3213 28.7998 16.156 28.9046C15.9907 29.0095 15.7982 29.0636 15.6024 29.0601Z" fill="#2D3C8D"/>
<path d="M20.1024 29.6201C19.966 29.6209 19.8309 29.5938 19.7054 29.5405C19.5798 29.4872 19.4665 29.4088 19.3724 29.3101L16.2324 25.9701C16.0508 25.7765 15.9534 25.5186 15.9619 25.2532C15.9703 24.9879 16.0838 24.7367 16.2774 24.5551C16.471 24.3734 16.7289 24.2761 16.9943 24.2845C17.2596 24.2929 17.5108 24.4065 17.6924 24.6001L20.2624 27.3601L22.2624 26.1201C22.4879 25.9795 22.7599 25.9342 23.0187 25.9943C23.2775 26.0543 23.5019 26.2146 23.6424 26.4401C23.783 26.6655 23.8283 26.9375 23.7682 27.1963C23.7082 27.4551 23.5479 27.6795 23.3224 27.8201L20.6024 29.4701C20.452 29.5634 20.2794 29.6152 20.1024 29.6201Z" fill="#2D3C8D"/>
<path d="M21.4324 32.4101C21.2439 32.4095 21.0595 32.3557 20.9002 32.2549C20.741 32.154 20.6135 32.0102 20.5324 31.8401L19.1924 29.0501C19.0784 28.81 19.0644 28.5345 19.1534 28.2842C19.2425 28.0338 19.4274 27.8291 19.6674 27.7151C19.9075 27.601 20.1829 27.587 20.4333 27.6761C20.6837 27.7652 20.8884 27.95 21.0024 28.1901L22.3324 30.9801C22.3965 31.1007 22.4353 31.2332 22.4462 31.3693C22.4571 31.5055 22.44 31.6424 22.396 31.7717C22.352 31.9011 22.2819 32.02 22.1901 32.1211C22.0984 32.2223 21.9868 32.3036 21.8624 32.3601C21.7249 32.41 21.5777 32.4271 21.4324 32.4101Z" fill="#2D3C8D"/>
<path d="M15.3024 24.5801C15.1047 24.5801 14.9113 24.5214 14.7469 24.4115C14.5824 24.3017 14.4542 24.1455 14.3786 23.9628C14.3029 23.78 14.2831 23.579 14.3217 23.385C14.3602 23.191 14.4555 23.0128 14.5953 22.873C14.7352 22.7331 14.9134 22.6379 15.1073 22.5993C15.3013 22.5607 15.5024 22.5805 15.6851 22.6562C15.8678 22.7319 16.024 22.8601 16.1339 23.0245C16.2438 23.189 16.3024 23.3823 16.3024 23.5801C16.3024 23.8453 16.1971 24.0996 16.0095 24.2872C15.822 24.4747 15.5677 24.5801 15.3024 24.5801Z" fill="#2D3C8D"/>
</svg>
