<svg width="45" height="49" viewBox="0 0 45 49" fill="none" xmlns="http://www.w3.org/2000/svg">
<path d="M22.2 6.54998C24.2529 6.54866 26.286 6.95205 28.1829 7.73706C30.0798 8.52208 31.8034 9.67333 33.255 11.125C34.7066 12.5766 35.8579 14.3002 36.6429 16.1971C37.4279 18.094 37.8313 20.127 37.83 22.18V43.28C37.83 44.3965 37.3864 45.4674 36.5969 46.2569C35.8074 47.0464 34.7366 47.49 33.62 47.49H10.78C10.2246 47.4939 9.67393 47.388 9.15968 47.1782C8.64544 46.9684 8.17778 46.6589 7.78367 46.2676C7.38955 45.8762 7.07676 45.4108 6.86331 44.898C6.64986 44.3853 6.53998 43.8354 6.54 43.28V22.18C6.53867 20.1245 6.94305 18.089 7.72994 16.1901C8.51683 14.2913 9.67076 12.5664 11.1256 11.1143C12.5804 9.6623 14.3075 8.51168 16.2079 7.72843C18.1083 6.94518 20.1445 6.54471 22.2 6.54998Z" fill="#549AE7"/>
<path d="M6.54 43.28H3.43C2.78552 43.28 2.16744 43.024 1.71173 42.5683C1.25602 42.1126 1 41.4945 1 40.85V34.5C0.999998 33.0537 1.57387 31.6664 2.59566 30.6428C3.61745 29.6191 5.00365 29.0427 6.45 29.04" fill="#F69683"/>
<path d="M37.83 43.28H40.97C41.6145 43.28 42.2326 43.024 42.6883 42.5683C43.144 42.1126 43.4 41.4945 43.4 40.85V34.5C43.4 33.0537 42.8261 31.6664 41.8043 30.6428C40.7826 29.6191 39.3963 29.0427 37.95 29.04" fill="#F69683"/>
<path d="M6.54 22.18C7.62681 22.1667 8.6819 21.8119 9.55591 21.1658C10.4299 20.5197 11.0786 19.6151 11.41 18.58C12.1676 16.3286 13.6125 14.3718 15.541 12.985C17.4696 11.5982 19.7846 10.8515 22.16 10.85C24.5422 10.8431 26.8662 11.5859 28.8027 12.9733C30.7393 14.3607 32.1902 16.3222 32.95 18.58C33.66 20.7 37.83 22.18 37.83 22.18C37.83 22.18 38.39 7.27997 22.2 6.54997C6.01 5.81997 6.01 22.18 6.01 22.18" fill="#F69683"/>
<path d="M13.76 27.38H30.64C31.3349 27.38 32.0013 27.656 32.4926 28.1474C32.984 28.6387 33.26 29.3051 33.26 30V31H11.14V30C11.14 29.3051 11.416 28.6387 11.9074 28.1474C12.3987 27.656 13.0651 27.38 13.76 27.38Z" fill="#FFC35C"/>
<path d="M33.62 48.49H10.78C10.0929 48.4953 9.41162 48.3643 8.77545 48.1048C8.13927 47.8452 7.56085 47.4621 7.07361 46.9776C6.58637 46.4932 6.19997 45.917 5.93673 45.2823C5.6735 44.6476 5.53866 43.9671 5.54 43.28V22.18C5.48561 19.9624 5.87541 17.7564 6.68645 15.6918C7.49748 13.6272 8.71337 11.7457 10.2625 10.1581C11.8117 8.57047 13.6628 7.30882 15.7069 6.4474C17.751 5.58598 19.9468 5.14221 22.165 5.14221C24.3832 5.14221 26.579 5.58598 28.6231 6.4474C30.6672 7.30882 32.5183 8.57047 34.0675 10.1581C35.6166 11.7457 36.8325 13.6272 37.6436 15.6918C38.4546 17.7564 38.8444 19.9624 38.79 22.18V43.28C38.79 44.6549 38.2466 45.974 37.2782 46.9499C36.3098 47.9259 34.9948 48.4794 33.62 48.49ZM22.2 7.54998C20.2766 7.54735 18.3715 7.92376 16.5937 8.65768C14.8158 9.39161 13.2 10.4687 11.8386 11.8273C10.4771 13.186 9.39676 14.7996 8.65919 16.5759C7.92162 18.3523 7.54132 20.2566 7.54 22.18V43.28C7.54 44.1287 7.87715 44.9426 8.47726 45.5427C9.07738 46.1428 9.89131 46.48 10.74 46.48H33.62C34.4696 46.48 35.2846 46.1432 35.8863 45.5433C36.488 44.9435 36.8274 44.1296 36.83 43.28V22.18C36.8247 18.3015 35.2816 14.5834 32.5391 11.8409C29.7966 9.09834 26.0785 7.55527 22.2 7.54998Z" fill="#2D3C8D"/>
<path d="M37.83 23.18C36.5318 23.1694 35.27 22.7502 34.2235 21.9819C33.1771 21.2137 32.3991 20.1354 32 18.9C31.3095 16.848 29.9922 15.0644 28.2339 13.801C26.4757 12.5375 24.3651 11.8579 22.2 11.8579C20.0349 11.8579 17.9243 12.5375 16.1661 13.801C14.4078 15.0644 13.0905 16.848 12.4 18.9C12.0007 20.141 11.2185 21.2237 10.1657 21.9926C9.11295 22.7615 7.84367 23.1772 6.54 23.18C6.27478 23.18 6.02043 23.0747 5.83289 22.8871C5.64536 22.6996 5.54 22.4452 5.54 22.18C5.54 21.9148 5.64536 21.6605 5.83289 21.4729C6.02043 21.2854 6.27478 21.18 6.54 21.18C7.42801 21.1829 8.29397 20.9036 9.01291 20.3823C9.73186 19.8611 10.2666 19.1249 10.54 18.28C11.3617 15.8302 12.9322 13.7004 15.0298 12.1915C17.1274 10.6826 19.6461 9.87085 22.23 9.87085C24.8139 9.87085 27.3326 10.6826 29.4302 12.1915C31.5278 13.7004 33.0983 15.8302 33.92 18.28C34.1881 19.1181 34.7126 19.8509 35.4196 20.3748C36.1265 20.8987 36.9802 21.1874 37.86 21.2C38.1252 21.2 38.3796 21.3054 38.5671 21.4929C38.7546 21.6805 38.86 21.9348 38.86 22.2C38.86 22.4653 38.7546 22.7196 38.5671 22.9071C38.3796 23.0947 38.1252 23.2 37.86 23.2L37.83 23.18Z" fill="#2D3C8D"/>
<path d="M6.54 44.28H3.43C2.52112 44.2774 1.65022 43.9152 1.00754 43.2725C0.364859 42.6298 0.00263828 41.7589 0 40.85V34.5C0.00263598 32.7893 0.682716 31.1492 1.89147 29.9386C3.10022 28.7279 4.73925 28.0453 6.45 28.04C6.71522 28.04 6.96957 28.1454 7.15711 28.3329C7.34464 28.5205 7.45 28.7748 7.45 29.04C7.45 29.3053 7.34464 29.5596 7.15711 29.7471C6.96957 29.9347 6.71522 30.04 6.45 30.04C5.26887 30.0427 4.13702 30.5137 3.30277 31.3499C2.46852 32.186 2 33.3189 2 34.5V40.86C2.00264 41.2376 2.15447 41.5987 2.42236 41.8647C2.69025 42.1308 3.05247 42.28 3.43 42.28H6.54C6.80522 42.28 7.05957 42.3854 7.24711 42.5729C7.43464 42.7605 7.54 43.0148 7.54 43.28C7.54 43.5453 7.43464 43.7996 7.24711 43.9871C7.05957 44.1747 6.80522 44.28 6.54 44.28Z" fill="#2D3C8D"/>
<path d="M40.97 44.28H37.83C37.5648 44.28 37.3104 44.1747 37.1229 43.9871C36.9354 43.7996 36.83 43.5453 36.83 43.28C36.83 43.0148 36.9354 42.7605 37.1229 42.5729C37.3104 42.3854 37.5648 42.28 37.83 42.28H40.97C41.3493 42.28 41.713 42.1294 41.9812 41.8612C42.2493 41.593 42.4 41.2293 42.4 40.85V34.5C42.4 33.3189 41.9315 32.186 41.0972 31.3499C40.263 30.5137 39.1311 30.0427 37.95 30.04C37.6848 30.04 37.4304 29.9347 37.2429 29.7471C37.0554 29.5596 36.95 29.3053 36.95 29.04C36.95 28.7748 37.0554 28.5205 37.2429 28.3329C37.4304 28.1454 37.6848 28.04 37.95 28.04C39.6608 28.0453 41.2998 28.7279 42.5085 29.9386C43.7173 31.1492 44.3974 32.7893 44.4 34.5V40.86C44.3947 41.7672 44.0313 42.6355 43.389 43.276C42.7466 43.9166 41.8772 44.2774 40.97 44.28Z" fill="#2D3C8D"/>
<path d="M25.77 7.33C25.5048 7.33 25.2504 7.22464 25.0629 7.03711C24.8754 6.84957 24.77 6.59522 24.77 6.33V4.57C24.77 3.88839 24.4992 3.2347 24.0173 2.75274C23.5353 2.27077 22.8816 2 22.2 2C21.5184 2 20.8647 2.27077 20.3827 2.75274C19.9008 3.2347 19.63 3.88839 19.63 4.57V6.33C19.63 6.59522 19.5246 6.84957 19.3371 7.03711C19.1496 7.22464 18.8952 7.33 18.63 7.33C18.3648 7.33 18.1104 7.22464 17.9229 7.03711C17.7354 6.84957 17.63 6.59522 17.63 6.33V4.57C17.63 3.35796 18.1115 2.19556 18.9685 1.33852C19.8256 0.481481 20.988 0 22.2 0C23.412 0 24.5744 0.481481 25.4315 1.33852C26.2885 2.19556 26.77 3.35796 26.77 4.57V6.33C26.77 6.46132 26.7441 6.59136 26.6939 6.71268C26.6436 6.83401 26.57 6.94425 26.4771 7.03711C26.3843 7.12997 26.274 7.20362 26.1527 7.25388C26.0314 7.30413 25.9013 7.33 25.77 7.33Z" fill="#2D3C8D"/>
<path d="M30.98 41.5H13.42C13.0891 41.5 12.7614 41.4348 12.4556 41.3082C12.1499 41.1815 11.8721 40.9959 11.6381 40.7619C11.4041 40.5279 11.2185 40.2501 11.0918 39.9443C10.9652 39.6386 10.9 39.3109 10.9 38.98V30.98C10.9 30.7148 11.0054 30.4604 11.1929 30.2729C11.3804 30.0853 11.6348 29.98 11.9 29.98H32.54C32.8052 29.98 33.0596 30.0853 33.2471 30.2729C33.4346 30.4604 33.54 30.7148 33.54 30.98V38.98C33.54 39.3143 33.4736 39.6453 33.3444 39.9537C33.2153 40.262 33.0261 40.5416 32.7878 40.7762C32.5496 41.0107 32.267 41.1955 31.9566 41.3198C31.6463 41.444 31.3143 41.5053 30.98 41.5ZM12.9 32V39C12.9 39.0683 12.9135 39.1359 12.9396 39.199C12.9657 39.2621 13.004 39.3194 13.0523 39.3677C13.1006 39.416 13.1579 39.4543 13.221 39.4804C13.2841 39.5065 13.3517 39.52 13.42 39.52H30.98C31.0533 39.5257 31.127 39.5158 31.1962 39.491C31.2653 39.4661 31.3285 39.4269 31.3814 39.3759C31.4343 39.3248 31.4758 39.2632 31.5032 39.1949C31.5305 39.1267 31.5431 39.0534 31.54 38.98V31.98L12.9 32Z" fill="#2D3C8D"/>
<path d="M33.26 32H11.14C10.8748 32 10.6204 31.8947 10.4329 31.7071C10.2454 31.5196 10.14 31.2652 10.14 31V29.65C10.14 29.2198 10.2249 28.7937 10.3899 28.3963C10.5548 27.9989 10.7966 27.638 11.1013 27.3342C11.406 27.0305 11.7677 26.7898 12.1656 26.6261C12.5634 26.4623 12.9897 26.3787 13.42 26.38H30.98C31.4103 26.3787 31.8366 26.4623 32.2344 26.6261C32.6323 26.7898 32.994 27.0305 33.2987 27.3342C33.6034 27.638 33.8452 27.9989 34.0101 28.3963C34.1751 28.7937 34.26 29.2198 34.26 29.65V31C34.26 31.2652 34.1546 31.5196 33.9671 31.7071C33.7796 31.8947 33.5252 32 33.26 32ZM12.14 30H32.26V29.65C32.26 29.4824 32.2268 29.3164 32.1624 29.1617C32.0979 29.007 32.0035 28.8665 31.8845 28.7484C31.7655 28.6304 31.6243 28.537 31.4691 28.4738C31.3138 28.4106 31.1476 28.3787 30.98 28.38H13.42C13.0822 28.38 12.7582 28.5135 12.5184 28.7514C12.2787 28.9893 12.1426 29.3123 12.14 29.65V30Z" fill="#2D3C8D"/>
<path d="M18.63 38.28H14.63C14.3648 38.28 14.1104 38.1747 13.9229 37.9871C13.7354 37.7996 13.63 37.5452 13.63 37.28C13.63 37.0148 13.7354 36.7605 13.9229 36.5729C14.1104 36.3854 14.3648 36.28 14.63 36.28H18.63C18.8952 36.28 19.1496 36.3854 19.3371 36.5729C19.5246 36.7605 19.63 37.0148 19.63 37.28C19.63 37.5452 19.5246 37.7996 19.3371 37.9871C19.1496 38.1747 18.8952 38.28 18.63 38.28Z" fill="#2D3C8D"/>
<path d="M29.36 33.78C29.0948 33.78 28.8404 33.6746 28.6529 33.4871C28.4654 33.2996 28.36 33.0452 28.36 32.78V31C28.36 30.7348 28.4654 30.4804 28.6529 30.2929C28.8404 30.1054 29.0948 30 29.36 30C29.6252 30 29.8796 30.1054 30.0671 30.2929C30.2546 30.4804 30.36 30.7348 30.36 31V32.78C30.36 33.0452 30.2546 33.2996 30.0671 33.4871C29.8796 33.6746 29.6252 33.78 29.36 33.78Z" fill="#2D3C8D"/>
<g opacity="0.25">
<path opacity="0.25" d="M32.5 31H11.9V33.84H32.5V31Z" fill="#2D3C8D"/>
<path opacity="0.25" d="M32.54 38.86V39.21C32.54 39.6953 32.3472 40.1608 32.004 40.504C31.6608 40.8472 31.1953 41.04 30.71 41.04H13.71C13.2247 41.04 12.7592 40.8472 12.416 40.504C12.0728 40.1608 11.88 39.6953 11.88 39.21V38.86H10.94V41.37C10.94 41.9004 11.1507 42.4091 11.5258 42.7842C11.9009 43.1593 12.4096 43.37 12.94 43.37H31.54C32.0704 43.37 32.5791 43.1593 32.9542 42.7842C33.3293 42.4091 33.54 41.9004 33.54 41.37V38.86H32.54Z" fill="#2D3C8D"/>
</g>
</svg>
