<svg width="28" height="40" viewBox="0 0 28 40" fill="none" xmlns="http://www.w3.org/2000/svg">
<path d="M14 37C21.732 37 28 30.5081 28 22.5C28 14.4919 21.732 8 14 8C6.26801 8 0 14.4919 0 22.5C0 30.5081 6.26801 37 14 37Z" fill="white"/>
<path d="M19.7662 15.8542C19.7662 15.8542 15.2473 18.3982 10.1725 15C10.1725 15 6.335 15 8.16408 20.7008C8.16408 20.7008 9.54485 24.7119 6.76537 24.4704C4.64937 24.2848 5.02595 26.0303 5.02595 26.0303C5.02595 26.0303 4.84663 29.4842 8.19994 28.0729L8.16408 36.0393C7.98476 41.4987 17.0405 40.6816 17.0584 37.3948V34.7208C17.0764 34.758 28.3736 33.4952 19.7662 15.8542Z" fill="#FBCABC"/>
<path d="M20 16.3499C20 16.3499 14.6624 19.5429 9.30678 15.758C9.30678 15.758 8.37225 16.3679 8.92937 19.0407C9.45055 21.5879 9.32475 24.2966 7.36582 23.9737C7.36582 23.9737 5.67647 15.2916 9.55838 14L19.6585 15.3454L20 16.3499Z" fill="#F4B3A4"/>
<path d="M22.8662 13C22.8662 13 26.0455 15.2955 21.7562 18.8115L19.7809 15.4959C19.7809 15.4959 14.5322 17.682 10.0736 14.7489L7.55267 15.7145C7.55267 15.7145 6.14172 17.3359 7.1576 19.85C8.39924 22.8741 8.68143 24.2951 5.59615 23.949C5.59615 23.949 5.03177 24.3498 4.44858 22.8195L3 17.9006L5.89715 16.2975C5.89715 16.2975 10.5439 13.4008 16.1501 13.3644C21.7751 13.3097 22.8662 13 22.8662 13Z" fill="#2E3D8F"/>
<path d="M3.84844 15.7522C3.01342 16.261 1.92595 15.9595 1.47931 15.0926C0.974415 14.0749 0.644291 12.7745 1.6735 11.9641C3.88728 10.1925 6.39234 9.87216 7.90703 5.25482C7.90703 5.25482 14.5872 -3.50869 21.9664 1.59865C21.9664 1.59865 24.4521 5.6129 21.714 8.30792C21.714 8.30792 12.2375 7.06406 4.23682 15.5072L3.84844 15.7522Z" fill="white"/>
<path d="M21 9.01636C21 9.01636 10.2553 8.3198 5 16.0177L5.50394 17C5.50394 17 10.2553 10.9632 20.838 10.6238L21 9.01636Z" fill="#FEC55F"/>
<path d="M4.66669 17.6071C5.17051 17.2716 5.26318 16.5323 4.87366 15.9559C4.48414 15.3795 3.75994 15.1841 3.25612 15.5196C2.7523 15.8551 2.65964 16.5944 3.04916 17.1708C3.43867 17.7473 4.16287 17.9426 4.66669 17.6071Z" fill="#B9BFE1"/>
<path d="M10.9811 27.9995C8.02534 28.0476 8.64445 24.5846 11.0809 25.0416C13.138 25.4263 14.1366 27.9514 10.9811 27.9995Z" fill="#F69885"/>
<path d="M21.2005 10C21.2005 10 26.4174 11.8927 22.6079 13.0851C22.6079 13.0851 13.056 12.5363 6 15.9999C6 16.0189 10.1848 10.776 21.2005 10Z" fill="#5E99D2"/>
<path d="M23.3407 25.1194C23.4874 25.5012 24.6855 26.9287 23.4385 26.9951C21.6048 27.078 20.1867 26.0987 21.5314 25.4016C21.8493 25.2356 23.2185 24.7874 23.3407 25.1194Z" fill="#F69885"/>
<path d="M21.5753 20.0004L23 24.8427C22.4479 25.0251 21.8068 25.0583 21.0411 24.8924C18.7616 24.3949 15.2712 19.9507 21.5753 20.0004Z" fill="#FDE6E0"/>
<path d="M12.3346 19.0005C18.7963 18.9387 15.2254 24.274 12.8636 24.8714C8.42361 26.0249 7.25219 19.0417 12.3346 19.0005Z" fill="#FDE6E0"/>
<path d="M19.4177 23C19.3756 23 19.3335 23 19.2915 22.9789C19.0601 22.9158 18.9549 22.6842 19.018 22.4526C19.2915 21.5474 19.8594 21 20.5114 21C21.1634 21 21.7103 21.5474 21.9837 22.4526C22.0468 22.6842 21.9206 22.9158 21.7103 22.9789C21.4789 23.0421 21.2475 22.9158 21.1844 22.7053C20.9951 22.0737 20.7007 21.8421 20.5114 21.8421C20.3011 21.8421 20.0066 22.1158 19.8173 22.7053C19.7542 22.8737 19.607 23 19.4177 23Z" fill="#2E3D8F"/>
<path d="M12.4177 23C12.3756 23 12.3335 23 12.2915 22.9789C12.0601 22.9158 11.9549 22.6842 12.018 22.4526C12.2915 21.5474 12.8594 21 13.5114 21C14.1634 21 14.7103 21.5474 14.9837 22.4526C15.0468 22.6842 14.9206 22.9158 14.7103 22.9789C14.4789 23.0421 14.2475 22.9158 14.1844 22.7053C13.9951 22.0737 13.7007 21.8421 13.5114 21.8421C13.3011 21.8421 13.0066 22.1158 12.8173 22.7053C12.7542 22.8737 12.5859 23 12.4177 23Z" fill="#2E3D8F"/>
<path d="M17.3613 28C17.1814 28 17.0195 27.8518 17.0015 27.6665C16.9835 27.4627 17.1275 27.2775 17.3254 27.2589C18.1529 27.1848 18.6567 27.0366 19.0345 26.5364C19.4662 25.925 19.2863 25.6471 18.6387 24.869C17.7391 23.7945 16.3898 22.1457 17.4873 18.2736C17.5412 18.0698 17.7391 17.9587 17.937 18.0143C18.1349 18.0698 18.2429 18.2736 18.1889 18.4774C17.1994 21.9789 18.3508 23.3684 19.1964 24.3873C19.7901 25.1099 20.4198 25.8695 19.6282 26.981C19.0525 27.7962 18.2249 27.9259 17.4153 28C17.3793 28 17.3613 28 17.3613 28Z" fill="#2E3D8F"/>
<path d="M10.7067 18.8959C11.7477 19.1835 14.19 18.878 14.8306 17.9433C16.3119 15.7326 7.50377 17.9793 10.7067 18.8959Z" fill="#2E3D8F"/>
<path d="M17.4912 18.3788C18.3152 19.0492 20.6866 19.279 21.6311 18.5512C23.902 16.8273 14.8385 16.2335 17.4912 18.3788Z" fill="#2E3D8F"/>
<path d="M22.0496 25C21.7403 25 21.431 24.9633 21.1045 24.8716C19.6268 24.5046 17.8397 22.468 18.0115 20.8901C18.1146 20.0094 18.8191 18.9819 21.6544 19.0002C23.6821 19.0186 24.4725 20.1011 24.7474 20.7433C25.1942 21.7341 25.0396 22.9634 24.3522 23.8624C23.8195 24.5963 22.9947 25 22.0496 25ZM21.5857 19.4589C20.4344 19.4589 18.5957 19.6608 18.4411 20.9451C18.2864 22.2478 19.9361 24.101 21.2076 24.4312C22.3761 24.7248 23.4071 24.4129 24.0429 23.5872C24.61 22.8349 24.7474 21.8075 24.3694 20.9635C23.957 20.0094 22.9775 19.4956 21.6544 19.4773C21.6372 19.4589 21.6029 19.4589 21.5857 19.4589Z" fill="#2E3D8F"/>
<path d="M11.9549 25C11.0173 25 10.186 24.6013 9.63761 23.8608C8.96543 22.9684 8.80623 21.7533 9.24846 20.747C9.53148 20.1015 10.3098 19.0003 12.344 19.0003C15.1742 18.9813 15.8818 20.0255 15.9879 20.8989C16.1648 22.4748 14.3606 24.5063 12.9101 24.8861C12.574 24.962 12.2556 25 11.9549 25ZM12.344 19.4749C11.0173 19.4939 10.0621 20.0065 9.6553 20.9559C9.28383 21.7913 9.40766 22.8165 9.9737 23.576C10.5928 24.4114 11.6365 24.7152 12.7862 24.4304C14.0422 24.1076 15.6872 22.2659 15.528 20.9559C15.4396 19.9876 14.3075 19.4559 12.344 19.4749Z" fill="#2E3D8F"/>
<path d="M17.7216 22C17.6987 22 17.6758 22 17.6529 22C17.2405 21.8521 16.7136 21.8521 16.3242 21.963C16.1638 22 16.0264 21.8521 16.0035 21.5933C15.9806 21.3345 16.0722 21.1127 16.2326 21.0757C16.6907 20.9648 17.2864 20.9648 17.7674 21.1496C17.9278 21.1866 18.0194 21.4454 17.9965 21.7042C17.9736 21.8521 17.8591 22 17.7216 22Z" fill="#2E3D8F"/>
<path d="M15.0166 35C14.5301 35 14.0437 34.981 13.5198 34.943C13.314 34.924 13.1643 34.753 13.1643 34.5439C13.1643 34.3349 13.3514 34.1829 13.5572 34.1829C18.1225 34.5059 21.0974 33.3278 22.4445 30.6294C24.8581 25.7838 21.2845 17.5558 19.8999 15.6175C16.5508 16.8337 12.9398 16.4916 10.1707 14.7054C10.0023 14.5914 9.94614 14.3634 10.0584 14.1733C10.1707 14.0023 10.3952 13.9453 10.5823 14.0593C13.2204 15.7695 16.7005 16.0356 19.8999 14.8004C20.0496 14.7434 20.218 14.7814 20.3116 14.9144C21.6587 16.5106 25.8124 25.5368 23.0994 30.9715C21.8084 33.6508 19.0767 35 15.0166 35Z" fill="#2E3D8F"/>
<path d="M13.1905 40C13.0531 40 12.896 40 12.739 39.9814C10.187 39.8695 7.47792 38.6951 7.47792 36.7192V28.1443C6.8301 28.2747 5.73078 28.3866 4.92592 27.846C4.27811 27.3986 3.96401 26.6343 4.00328 25.5904C4.02291 24.8075 4.21921 24.2855 4.5922 23.9873C5.08297 23.5772 5.75041 23.6704 6.33933 23.7263C7.28161 23.8382 7.71349 23.8382 7.8509 22.8688C7.96869 22.03 7.61533 21.2657 7.26198 20.4641C6.61416 19.066 5.88783 17.5002 7.41903 15.17C7.53681 15.0023 7.77238 14.9463 7.96869 15.0582C8.14536 15.17 8.20426 15.3937 8.08647 15.5801C6.79084 17.5934 7.36013 18.8423 7.98832 20.1845C8.38093 21.042 8.79318 21.9368 8.63613 22.9993C8.38093 24.7329 7.10493 24.5838 6.24118 24.4906C5.77004 24.4347 5.33817 24.3787 5.1026 24.5652C4.90629 24.7143 4.80814 25.0871 4.78851 25.6277C4.76887 26.4106 4.96518 26.9699 5.39706 27.2495C6.10377 27.7341 7.32087 27.4545 7.75275 27.324C7.87053 27.2868 8.00795 27.3054 8.1061 27.3613C8.20426 27.4359 8.28278 27.5477 8.28278 27.6596V36.7192C8.28278 38.1732 10.5796 39.1425 12.7979 39.2357C14.702 39.3103 16.9792 38.7697 17.1755 36.9429L17.2148 34.3331C17.2148 34.1281 17.3914 33.9603 17.6074 33.9603C17.8233 33.9603 18 34.1281 18 34.3331L17.9607 36.9615V36.9801C17.8037 38.4155 16.4688 40 13.1905 40Z" fill="#2E3D8F"/>
<path d="M22.2559 19C22.1919 19 22.128 18.9665 22.0768 18.8995C21.9744 18.7654 21.9744 18.5644 22.0768 18.4304C24.252 15.5823 23.4203 14.4095 22.8189 13.5551C22.7293 13.421 22.7293 13.2032 22.8317 13.086C22.9341 12.9687 23.1004 12.9687 23.19 13.1027C24.252 14.6105 24.5207 16.1686 22.435 18.8995C22.3967 18.9665 22.3327 19 22.2559 19Z" fill="#2E3D8F"/>
<path d="M5.56782 24C5.39818 24 5.24975 23.9089 5.18613 23.7813C3.95624 21.2663 3.25647 19.2251 3.00201 17.4027C2.9808 17.2022 3.12924 17.02 3.3625 17.0017C3.59575 16.9835 3.8078 17.1111 3.82901 17.3115C4.08347 19.0793 4.76203 21.0294 5.97072 23.4897C6.05554 23.672 5.94951 23.8907 5.73746 23.9636C5.67385 23.9818 5.61023 24 5.56782 24Z" fill="#2E3D8F"/>
<path d="M5.23863 17C5.20214 17 5.14742 16.982 5.11093 16.9639C5.00148 16.8918 4.96499 16.7655 5.03796 16.6573C5.1839 16.4228 8.77764 10.8497 20.7628 10.002C20.8905 9.98394 21 10.0922 21 10.2184C21 10.3447 20.9088 10.4529 20.7811 10.4529C9.05127 11.2825 5.45754 16.8377 5.42105 16.8918C5.38457 16.9639 5.3116 17 5.23863 17Z" fill="#2E3D8F"/>
<path d="M4.63013 18C4.09101 18 3.55188 17.7161 3.23584 17.2016C2.78966 16.4741 2.99416 15.5692 3.7006 15.1789C4.05383 14.9837 4.44423 14.9483 4.85322 15.0724C5.22503 15.1966 5.55967 15.445 5.76416 15.7999C6.21034 16.5274 6.00584 17.4322 5.2994 17.8226C5.0949 17.9468 4.85322 18 4.63013 18ZM3.88651 16.8467C4.12819 17.2371 4.59295 17.3967 4.92758 17.2193C5.26222 17.0241 5.35517 16.5628 5.11349 16.1725C5.00195 15.9773 4.81604 15.8354 4.61154 15.7644C4.42564 15.7112 4.22114 15.7112 4.07242 15.7999C3.73778 15.9773 3.64483 16.4564 3.88651 16.8467Z" fill="#2E3D8F"/>
<path d="M5.36931 17C5.24083 17 5.13071 16.9456 5.05729 16.8367C4.94717 16.6734 5.00223 16.4376 5.16742 16.3287C10.4717 13.0087 15.8311 12.8817 19.3917 12.791C21.9062 12.7366 23.2094 12.664 23.2644 11.8839C23.3011 11.3034 21.9246 10.487 20.9335 10.3419C20.7316 10.3237 20.6031 10.1423 20.6215 9.94273L20.805 8.32809C20.8234 8.12853 21.0069 7.98339 21.2088 8.00153C21.4107 8.01967 21.5575 8.20109 21.5392 8.40066L21.3923 9.6706C22.4752 9.94273 24.0537 10.8136 23.9986 11.9021C23.9068 13.3897 22.1265 13.426 19.4101 13.4986C15.9412 13.5893 10.7103 13.7163 5.5712 16.9274C5.49779 16.9819 5.42437 17 5.36931 17Z" fill="#2E3D8F"/>
<path d="M5.22719 16C5.18987 16 5.15256 16 5.1339 15.9806C5.02196 15.9225 4.96599 15.7869 5.02196 15.6513C5.05927 15.5739 5.89885 13.7724 8.38025 11.9128C10.6564 10.2082 14.8356 8.15496 21.7575 8C21.8881 8 22 8.09685 22 8.23244C22 8.36804 21.9067 8.48426 21.7761 8.48426C18.0447 8.56174 12.7274 9.29782 8.69742 12.2809C6.27199 14.063 5.45107 15.845 5.43242 15.8644C5.3951 15.9419 5.32047 16 5.22719 16Z" fill="#2E3D8F"/>
<path d="M2.81236 17C2.75689 17 2.68294 16.9811 2.62747 16.9621C1.59207 16.3937 0.981919 15.3517 1.00041 14.1771C1.0189 12.9266 1.77696 11.7709 2.94179 11.1647L2.99726 11.1268C4.88317 10.1605 6.01102 9.59215 7.0834 6.69343C8.76593 2.10852 12.7226 0.232873 15.8658 0.0244685C18.8796 -0.183936 21.4866 0.952818 22.522 2.90425C23.1506 4.11678 23.4834 6.144 21.3941 8.96694C21.2647 9.13745 21.0428 9.17534 20.8764 9.04272C20.71 8.9101 20.6731 8.68275 20.8025 8.51223C22.2631 6.54186 22.6329 4.72305 21.8749 3.28316C21.0059 1.59698 18.6207 0.592846 15.9398 0.782305C12.168 1.04755 9.11722 3.35895 7.80448 6.97762C6.63965 10.1416 5.27144 10.8426 3.36704 11.8278L3.31157 11.8657C2.38711 12.3393 1.79545 13.2487 1.77696 14.215C1.75847 15.1054 2.20221 15.8632 3.01575 16.3179C3.20064 16.4127 3.25611 16.64 3.16366 16.8295C3.07121 16.9242 2.94179 17 2.81236 17Z" fill="#2E3D8F"/>
<path d="M13.9412 28.0013C14.8384 27.9716 14.7019 28.4612 18.2128 28.3425C20.2412 28.2832 17.9982 31.5324 15.4626 30.9241C13.0635 30.3455 12.1468 28.0458 13.9412 28.0013Z" fill="#2E3D8F"/>
<path d="M6.40183 27C6.33742 27 6.27302 26.9556 6.24082 26.889C5.91881 26.312 5.96711 25.7571 6.11202 25.4241C6.27302 25.0912 6.54673 24.9358 6.83655 25.0246C6.94925 25.0468 7.01365 25.2022 6.99755 25.3576C6.98145 25.5129 6.86875 25.6017 6.75604 25.5795C6.62724 25.5351 6.51453 25.6017 6.45013 25.7349C6.36963 25.8902 6.36963 26.201 6.56283 26.5561C6.62724 26.6893 6.61114 26.8446 6.51453 26.9334C6.49843 26.9778 6.45013 27 6.40183 27Z" fill="#2E3D8F"/>
</svg>
