<?xml version="1.0" standalone="no"?>
<!DOCTYPE svg PUBLIC "-//W3C//DTD SVG 20010904//EN"
 "http://www.w3.org/TR/2001/REC-SVG-20010904/DTD/svg10.dtd">
<svg version="1.0" xmlns="http://www.w3.org/2000/svg"
 width="1017.000000pt" height="515.000000pt" viewBox="0 0 1017.000000 515.000000"
 preserveAspectRatio="xMidYMid meet">

<g transform="translate(0.000000,515.000000) scale(0.100000,-0.100000)"
fill="#000000" stroke="none">
<path d="M160 2720 l0 -2100 1780 0 1780 0 0 35 0 35 -1743 2 -1742 3 0 2025
0 2025 4875 0 4875 0 0 -2025 0 -2025 -1742 -3 -1743 -2 0 -35 0 -35 1780 0
1780 0 0 2100 0 2100 -4950 0 -4950 0 0 -2100z"/>
<path d="M310 2720 l0 -1950 1800 0 1800 0 0 75 0 75 -1725 0 -1725 0 0 1800
0 1800 4650 0 4650 0 0 -1800 0 -1800 -1725 0 -1725 0 0 -75 0 -75 1800 0
1800 0 0 1950 0 1950 -4800 0 -4800 0 0 -1950z"/>
<path d="M6641 3245 c-83 -26 -131 -91 -131 -180 0 -109 36 -142 230 -211 173
-62 205 -88 205 -167 0 -68 -16 -98 -69 -128 -78 -44 -230 -23 -292 42 -24 25
-30 41 -34 92 -4 54 -8 62 -25 62 -19 0 -20 -7 -20 -135 0 -127 1 -135 19
-135 14 0 22 10 28 32 l8 31 43 -23 c93 -50 216 -56 303 -15 107 52 140 213
61 298 -30 32 -93 63 -215 106 -166 58 -181 71 -182 152 0 92 58 138 175 138
111 0 175 -47 175 -128 0 -54 13 -75 37 -60 15 9 18 28 21 115 2 113 -6 141
-35 123 -10 -6 -19 -21 -21 -32 -3 -22 -3 -22 -30 -2 -54 39 -170 50 -251 25z"/>
<path d="M8287 3250 c-77 -20 -158 -80 -203 -151 -65 -104 -73 -291 -17 -411
41 -87 83 -132 158 -169 80 -39 157 -47 243 -25 105 27 179 91 211 186 10 30
9 37 -6 48 -25 18 -33 12 -68 -54 -120 -228 -433 -170 -502 93 -21 80 -13 202
16 270 28 62 101 135 157 154 60 21 161 17 210 -9 49 -25 95 -75 113 -123 20
-55 27 -64 47 -64 17 0 19 10 22 122 2 114 1 122 -18 128 -31 10 -40 -2 -40
-52 l0 -46 -20 26 c-34 43 -121 79 -198 83 -37 2 -84 -1 -105 -6z"/>
<path d="M1703 3235 c-10 -29 10 -34 132 -37 l120 -3 3 -253 c1 -152 -2 -269
-8 -292 -23 -84 -132 -133 -244 -110 -70 14 -94 40 -98 105 -3 46 -5 50 -28
50 -24 0 -25 -2 -25 -68 0 -63 2 -71 28 -93 42 -36 129 -58 203 -51 113 11
200 71 223 154 6 22 11 148 11 300 l0 262 68 3 c59 3 67 5 67 23 0 19 -8 20
-223 23 -195 2 -223 0 -229 -13z"/>
<path d="M2370 3236 c-20 -25 -2 -36 56 -36 l54 0 0 -330 0 -329 -67 -3 c-60
-3 -68 -5 -68 -23 0 -20 8 -20 310 -23 171 -1 320 0 333 3 21 5 22 10 22 116
0 90 -3 111 -16 116 -27 10 -36 -12 -41 -101 l-6 -86 -201 2 -201 3 0 160 0
160 106 3 106 3 6 -57 c7 -65 19 -83 42 -64 21 18 22 252 0 270 -22 18 -34 4
-41 -50 l-7 -50 -109 0 -109 0 3 138 3 137 196 3 197 2 6 -22 c3 -13 6 -51 6
-84 0 -43 5 -65 15 -74 28 -24 36 3 33 116 l-3 109 -306 3 c-260 2 -308 0
-319 -12z"/>
<path d="M3180 3236 c-20 -25 -2 -36 56 -36 l54 0 0 -330 0 -329 -67 -3 c-60
-3 -68 -5 -68 -23 0 -20 8 -20 310 -23 171 -1 320 0 333 3 21 5 22 10 22 116
0 90 -3 111 -16 116 -27 10 -36 -12 -41 -101 l-6 -86 -201 2 -201 3 0 160 0
160 106 3 106 3 6 -57 c7 -65 19 -83 42 -64 21 18 22 252 0 270 -22 18 -34 4
-41 -50 l-7 -50 -109 0 -109 0 3 138 3 137 196 3 197 2 6 -22 c3 -13 6 -51 6
-84 0 -43 5 -65 15 -74 28 -24 36 3 33 116 l-3 109 -306 3 c-260 2 -308 0
-319 -12z"/>
<path d="M3977 3243 c-4 -3 -7 -57 -7 -118 0 -88 3 -115 15 -125 30 -25 44 5
47 103 l3 92 113 3 112 3 0 -331 0 -330 -89 0 c-91 0 -113 -9 -90 -36 10 -12
46 -14 218 -12 204 3 206 3 209 25 3 21 0 22 -90 25 l-93 3 0 325 0 325 115 0
115 0 3 -92 c3 -99 17 -128 47 -103 13 11 15 35 13 129 l-3 116 -316 3 c-173
1 -318 -1 -322 -5z"/>
<path d="M4731 3236 c-20 -24 -4 -36 50 -36 l49 0 0 -330 0 -330 -54 0 c-37 0
-56 -4 -59 -14 -12 -30 19 -37 149 -34 125 3 129 4 132 26 3 20 0 22 -48 22
-31 0 -52 5 -55 13 -3 7 -4 138 -3 292 l3 280 88 -195 c49 -107 95 -201 102
-209 11 -11 20 -12 37 -4 17 8 43 56 102 194 44 101 83 191 87 199 5 8 9 -117
9 -277 l0 -293 -54 0 c-58 0 -76 -11 -56 -35 16 -19 259 -22 277 -4 24 24 2
39 -53 39 l-54 0 0 330 0 330 49 0 c54 0 70 12 50 36 -9 11 -31 14 -92 12
l-79 -3 -97 -222 c-53 -122 -99 -219 -103 -215 -4 4 -51 104 -105 222 l-98
215 -81 3 c-62 2 -84 -1 -93 -12z"/>
<path d="M5554 3236 c-10 -26 6 -36 61 -36 l53 0 5 -257 c5 -294 8 -314 77
-385 126 -130 353 -89 427 77 15 34 18 77 21 303 l3 262 55 0 c41 0 56 4 61
16 11 28 -19 34 -152 32 -122 -3 -130 -4 -130 -23 0 -17 8 -20 53 -23 l52 -3
0 -235 c0 -275 -6 -309 -64 -369 -53 -55 -109 -72 -184 -57 -69 14 -105 41
-134 100 -22 45 -23 55 -23 302 l0 255 65 5 c57 4 65 8 65 25 0 19 -8 20 -153
23 -127 2 -153 0 -158 -12z"/>
<path d="M7304 3236 c-12 -30 7 -36 117 -36 l109 0 0 -330 0 -329 -112 -3
c-105 -3 -113 -4 -113 -23 0 -19 7 -20 250 -20 243 0 250 1 250 20 0 18 -8 20
-105 25 l-105 5 0 325 0 325 105 5 c97 5 105 7 105 25 0 19 -8 20 -248 23
-210 2 -248 0 -253 -12z"/>
<path d="M4720 845 l0 -615 55 0 55 0 0 615 0 615 -55 0 -55 0 0 -615z"/>
<path d="M5390 845 l0 -615 55 0 55 0 0 615 0 615 -55 0 -55 0 0 -615z"/>
<path d="M4490 840 l0 -280 55 0 55 0 0 280 0 280 -55 0 -55 0 0 -280z"/>
<path d="M5170 840 l0 -280 55 0 55 0 0 280 0 280 -55 0 -55 0 0 -280z"/>
<path d="M5620 840 l0 -280 55 0 55 0 0 280 0 280 -55 0 -55 0 0 -280z"/>
<path d="M4270 845 l0 -115 55 0 55 0 0 115 0 115 -55 0 -55 0 0 -115z"/>
<path d="M4940 845 l0 -115 55 0 55 0 0 115 0 115 -55 0 -55 0 0 -115z"/>
<path d="M5840 845 l0 -115 55 0 55 0 0 115 0 115 -55 0 -55 0 0 -115z"/>
</g>
</svg>
